{
    "asset" : {
        "generator" : "Khronos glTF Blender I/O v0.9.36",
        "version" : "2.0"
    },
    "scene" : 0,
    "scenes" : [
        {
            "name" : "Scene",
            "nodes" : [
                0,
                1,
                2
            ]
        }
    ],
    "nodes" : [
        {
            "name" : "Light",
            "rotation" : [
                0.16907575726509094,
                0.7558803558349609,
                -0.27217137813568115,
                0.570947527885437
            ],
            "translation" : [
                4.076245307922363,
                5.903861999511719,
                -1.0054539442062378
            ]
        },
        {
            "name" : "Camera",
            "rotation" : [
                0.483536034822464,
                0.33687159419059753,
                -0.20870360732078552,
                0.7804827094078064
            ],
            "translation" : [
                7.358891487121582,
                4.958309173583984,
                6.925790786743164
            ]
        },
        {
            "mesh" : 0,
            "name" : "table",
            "scale" : [
                0.7783425450325012,
                0.7783425450325012,
                0.7783425450325012
            ],
            "translation" : [
                -8.638253211975098,
                1.2663613557815552,
                -5.539403438568115
            ]
        }
    ],
    "materials" : [
        {
            "doubleSided" : true,
            "name" : "bois.001",
            "pbrMetallicRoughness" : {
                "baseColorFactor" : [
                    0.34238171577453613,
                    0.04446021467447281,
                    0,
                    1
                ],
                "metallicFactor" : 0,
                "roughnessFactor" : 0.5
            }
        }
    ],
    "meshes" : [
        {
            "name" : "Cylinder.002",
            "primitives" : [
                {
                    "attributes" : {
                        "POSITION" : 0,
                        "NORMAL" : 1,
                        "TEXCOORD_0" : 2
                    },
                    "indices" : 3,
                    "material" : 0
                }
            ]
        }
    ],
    "accessors" : [
        {
            "bufferView" : 0,
            "componentType" : 5126,
            "count" : 11176,
            "max" : [
                1.9276413917541504,
                2.095275402069092,
                2.8829052448272705
            ],
            "min" : [
                -1.927621841430664,
                -1.6269973516464233,
                -2.882882833480835
            ],
            "type" : "VEC3"
        },
        {
            "bufferView" : 1,
            "componentType" : 5126,
            "count" : 11176,
            "type" : "VEC3"
        },
        {
            "bufferView" : 2,
            "componentType" : 5126,
            "count" : 11176,
            "type" : "VEC2"
        },
        {
            "bufferView" : 3,
            "componentType" : 5123,
            "count" : 17172,
            "type" : "SCALAR"
        }
    ],
    "bufferViews" : [
        {
            "buffer" : 0,
            "byteLength" : 134112,
            "byteOffset" : 0
        },
        {
            "buffer" : 0,
            "byteLength" : 134112,
            "byteOffset" : 134112
        },
        {
            "buffer" : 0,
            "byteLength" : 89408,
            "byteOffset" : 268224
        },
        {
            "buffer" : 0,
            "byteLength" : 34344,
            "byteOffset" : 357632
        }
    ],
    "buffers" : [
        {
            "byteLength" : 391976,
            "uri" : "data:application/octet-stream;base64,"
        }
    ]
}
